# xmcd
# Track frame offsets:
# 150
# 13029
# 25373
# 39721
# 54067
# 67001
# 76882
# 93327
# 105571
# 117793
# 130863
# 147456
# 167961
# 181629
# 200869
# 222742
#
# Disc length: 3140 seconds
# Revision: 0
# Processed by: cddbd v1.4PL0 Copyright (c) Steve Scherf et al.
# Submitted via: VisiTrax 2.9.5.181 - For more info visit www.synapsa.com
#
DISCID=e40c4210
DTITLE=Merle Haggard - 16 Biggest Hits
DYEAR=1900
DGENRE=
TTITLE0=Swinging Doors
TTITLE1=The Bottle Let Me Down
TTITLE2=I'm A Lonesome Fugitive
TTITLE3=Branded Man
TTITLE4=Sing Me Back Home
TTITLE5=Mama Tried
TTITLE6=Hungry Eyes
TTITLE7=Workin' Man Blues
TTITLE8=Okie From Muskogee (studio)
TTITLE9=The Fightin' Side Of Me
TTITLE10=Daddy Frank (The Guitar Man)
TTITLE11=I Think I'll Just Stay Here And Drink
TTITLE12=Big City
TTITLE13=Are The Good Times Really Over (I Wish A Buck Was Still Silver)
TTITLE14=Going Where The Lonely Go
TTITLE15=Silver Wings
EXTD=
EXTT0=
EXTT1=
EXTT2=
EXTT3=
EXTT4=
EXTT5=
EXTT6=
EXTT7=
EXTT8=
EXTT9=
EXTT10=
EXTT11=
EXTT12=
EXTT13=
EXTT14=
EXTT15=
PLAYORDER=
